<?xml version="1.0" encoding="utf-8"?>
<!-- Generator: Adobe Illustrator 16.0.0, SVG Export Plug-In . SVG Version: 6.00 Build 0)  -->
<!DOCTYPE svg PUBLIC "-//W3C//DTD SVG 1.1//EN" "http://www.w3.org/Graphics/SVG/1.1/DTD/svg11.dtd">
<svg version="1.1" id="Layer_1" xmlns="http://www.w3.org/2000/svg" xmlns:xlink="http://www.w3.org/1999/xlink" x="0px" y="0px"
	 width="9.125px" height="19.5px" viewBox="0 0 9.125 19.5" enable-background="new 0 0 9.125 19.5" xml:space="preserve">
<g>
	<path fill-rule="evenodd" clip-rule="evenodd" fill="#FFFFFF" d="M8.998,0.41C8.995,0.469,8.987,0.529,8.987,0.587
		c0,0.954-0.001,1.907,0.005,2.862c0,0.132-0.039,0.166-0.169,0.164C8.305,3.608,7.786,3.608,7.267,3.619
		C7.091,3.623,6.912,3.65,6.739,3.683c-0.327,0.06-0.565,0.327-0.58,0.695c-0.025,0.67-0.021,1.344-0.034,2.015
		C6.122,6.515,6.204,6.494,6.276,6.494c0.845,0,1.69,0,2.534,0c0.059,0,0.115,0,0.191,0c-0.113,1.08-0.225,2.135-0.337,3.199
		c-0.849,0-1.68,0-2.537,0c0,0.076,0,0.138,0,0.201c0,2.974-0.001,5.949-0.003,8.925c0,0.055-0.003,0.108-0.004,0.163
		c-1.158,0-2.314,0-3.471,0c0.001-0.275,0.004-0.555,0.004-0.831c0-2.738,0-5.479,0-8.216c0-0.075,0-0.146,0-0.238
		c-0.776,0-1.541,0-2.313,0C0.336,9.632,0.332,9.583,0.332,9.535C0.33,8.578,0.334,7.619,0.329,6.66
		c0-0.134,0.039-0.167,0.167-0.166C1.159,6.5,1.823,6.493,2.484,6.498C2.624,6.5,2.655,6.453,2.655,6.321
		c0.004-0.86,0-1.72,0.031-2.58c0.021-0.625,0.152-1.233,0.443-1.8C3.447,1.323,3.943,0.9,4.601,0.69
		C4.964,0.576,5.35,0.525,5.725,0.445C5.778,0.434,5.831,0.421,5.884,0.41C6.922,0.41,7.959,0.41,8.998,0.41z"/>
</g>
</svg>
