<?xml version="1.0" encoding="utf-8"?>
<!-- Generator: Adobe Illustrator 16.0.0, SVG Export Plug-In . SVG Version: 6.00 Build 0)  -->
<!DOCTYPE svg PUBLIC "-//W3C//DTD SVG 1.1//EN" "http://www.w3.org/Graphics/SVG/1.1/DTD/svg11.dtd" [
	<!ENTITY ns_flows "http://ns.adobe.com/Flows/1.0/">
	<!ENTITY ns_extend "http://ns.adobe.com/Extensibility/1.0/">
	<!ENTITY ns_ai "http://ns.adobe.com/AdobeIllustrator/10.0/">
	<!ENTITY ns_graphs "http://ns.adobe.com/Graphs/1.0/">
]>
<svg version="1.1" id="Layer_1" xmlns:x="&ns_extend;" xmlns:i="&ns_ai;" xmlns:graph="&ns_graphs;"
	 xmlns="http://www.w3.org/2000/svg" xmlns:xlink="http://www.w3.org/1999/xlink" xmlns:a="http://ns.adobe.com/AdobeSVGViewerExtensions/3.0/"
	 x="0px" y="0px" width="288.889px" height="258.586px" viewBox="0 0 288.889 258.586" enable-background="new 0 0 288.889 258.586"
	 xml:space="preserve">
<g display="none">
	<path display="inline" fill="none" stroke="#000000" stroke-width="0.5" stroke-linecap="round" stroke-linejoin="round" d="
		M136.536,26.273c-1.1,0.32-2.18,0.73-3.29,0.95c-27.02,5.43-44.98,21.24-53.58,47.36c-6.13,18.64-2.01,36.48,5.22,53.92
		c14.46,34.88,35.46,65.8,58.101,95.72c0.38,0.49,0.909,0.859,1.64,1.55c1.189-1.42,2.34-2.58,3.25-3.9
		c10.25-14.76,20.85-29.29,30.58-44.38c12.62-19.609,23.45-40.19,30.51-62.59c11.63-36.92-9.16-75.76-46.33-86.17
		c-3.34-0.93-6.729-1.64-10.1-2.46"/>
	<path display="inline" fill="#96B49C" d="M152.536,26.273c3.37,0.82,6.76,1.53,10.1,2.46c37.17,10.41,57.96,49.25,46.33,86.17
		c-7.06,22.4-17.89,42.98-30.51,62.59c-9.73,15.09-20.33,29.62-30.58,44.38c-0.91,1.32-2.061,2.48-3.25,3.9
		c-0.73-0.69-1.26-1.06-1.64-1.55c-22.641-29.92-43.641-60.84-58.101-95.72c-7.23-17.44-11.35-35.28-5.22-53.92
		c8.6-26.12,26.56-41.93,53.58-47.36c1.11-0.22,2.19-0.63,3.29-0.95C141.866,26.273,147.196,26.273,152.536,26.273z"/>
	<path display="inline" fill="none" stroke="#000000" stroke-width="0.5" stroke-linecap="round" stroke-linejoin="round" d="
		M144.576,60.933c-18.38-0.02-33.07,14.56-33.13,32.89c-0.06,18.3,14.57,33.2,32.78,33.36c18.4,0.17,33.4-14.77,33.38-33.26
		C177.585,75.593,162.935,60.963,144.576,60.933z"/>
	<path display="inline" fill="#FFFFFF" d="M144.576,60.933c18.359,0.03,33.01,14.66,33.029,32.99
		c0.021,18.49-14.979,33.43-33.38,33.26c-18.209-0.16-32.84-15.06-32.78-33.36C111.505,75.493,126.195,60.913,144.576,60.933z"/>
</g>
<g>
	<path fill="#96B49C" d="M39.115,65.673c0.33-2.38,0.65-4.77,0.99-7.15c1.24-8.68,4.54-16.48,9.53-23.68
		c3.33-4.81,7.49-8.83,11.93-12.46c6.44-5.28,15.77-5.08,22.01,1.02c6.84,6.67,13.55,13.48,20.31,20.23
		c3.89,3.89,7.75,7.82,11.67,11.7c6.97,6.91,7.41,16.72,0.77,24.05c-4.18,4.62-8.72,8.91-13.13,13.3c-1.23,1.23-2.6,2.31-3.91,3.46
		c7.44,13.9,15.42,26.88,25.84,38.2c16.09,17.47,31.36,26.64,47.72,35.34c3.62-3.67,7.271-7.391,10.95-11.101
		c1.86-1.88,3.69-3.779,5.63-5.579c5.74-5.311,13.101-6.521,19.91-2.801c2.65,1.44,4.85,3.79,7.03,5.95
		c9.67,9.57,19.22,19.26,28.88,28.83c2.75,2.73,4.149,6.07,5.2,9.65c0,1.58,0,3.149,0,4.729c-0.82,2.13-1.28,4.5-2.521,6.351
		c-3.92,5.819-8.99,10.64-14.79,14.529c-10.68,7.16-22.43,10.32-35.359,8.88c-13.841-1.54-26.921-5.619-39.53-11.34
		c-9.9-4.479-19.24-10-28.15-16.189c-11.19-7.78-21.65-16.471-31.35-26.04c-9.4-9.28-18.47-18.86-26.84-29.101
		c-9.53-11.65-18.12-23.89-24.3-37.7c-3.58-8-6.23-16.26-7.45-24.95c-0.34-2.44-0.69-4.88-1.04-7.32
		C39.115,72.883,39.115,69.273,39.115,65.673z"/>
</g>
<image display="none" overflow="visible" width="512" height="512" xlink:href="../../Supreme/development materials/Email-Icon.png"  transform="matrix(0.5004 0 0 0.5004 16.3481 1.1968)">
</image>
<g>
</g>
<g>
</g>
<g>
</g>
<g>
</g>
<g>
</g>
</svg>
