<?xml version="1.0" encoding="utf-8"?>
<!-- Generator: Adobe Illustrator 16.0.0, SVG Export Plug-In . SVG Version: 6.00 Build 0)  -->
<!DOCTYPE svg PUBLIC "-//W3C//DTD SVG 1.1//EN" "http://www.w3.org/Graphics/SVG/1.1/DTD/svg11.dtd">
<svg version="1.1" id="Layer_1" xmlns="http://www.w3.org/2000/svg" xmlns:xlink="http://www.w3.org/1999/xlink" x="0px" y="0px"
	 width="24px" height="17.5px" viewBox="0 0 24 17.5" enable-background="new 0 0 24 17.5" xml:space="preserve">
<g>
	<path fill-rule="evenodd" clip-rule="evenodd" fill="#FFFFFF" d="M23.75,6.863c0,1.273,0,2.547,0,3.82
		c-0.011,0.072-0.025,0.146-0.029,0.218c-0.029,0.468-0.045,0.938-0.085,1.405c-0.067,0.787-0.14,1.58-0.412,2.327
		c-0.368,1.009-1.086,1.649-2.14,1.874c-0.384,0.083-0.782,0.12-1.176,0.141c-1.604,0.082-3.207,0.187-4.812,0.212
		c-2.076,0.032-4.152,0.004-6.228-0.01c-1.755-0.012-3.507-0.097-5.255-0.27c-1.369-0.137-2.439-1.049-2.692-2.406
		c-0.146-0.794-0.226-1.601-0.32-2.403c-0.043-0.359-0.049-0.725-0.072-1.088c0-1.261,0-2.521,0-3.783
		c0.01-0.061,0.025-0.12,0.029-0.181c0.028-0.462,0.044-0.925,0.082-1.387c0.066-0.8,0.142-1.604,0.412-2.366
		c0.363-1.017,1.084-1.666,2.146-1.89c0.434-0.091,0.881-0.131,1.323-0.153c1.555-0.079,3.108-0.177,4.664-0.2
		c2.076-0.031,4.152-0.004,6.228,0.01c1.756,0.012,3.507,0.098,5.255,0.271c1.306,0.129,2.367,0.969,2.655,2.244
		c0.175,0.774,0.246,1.572,0.343,2.361C23.718,6.025,23.724,6.446,23.75,6.863z M16.528,8.568c-2.483-1.295-4.922-2.567-7.375-3.847
		c0,2.571,0,5.104,0,7.671C11.613,11.117,14.047,9.855,16.528,8.568z"/>
</g>
</svg>
