<?xml version="1.0" encoding="utf-8"?>
<!-- Generator: Adobe Illustrator 16.0.0, SVG Export Plug-In . SVG Version: 6.00 Build 0)  -->
<!DOCTYPE svg PUBLIC "-//W3C//DTD SVG 1.1//EN" "http://www.w3.org/Graphics/SVG/1.1/DTD/svg11.dtd" [
	<!ENTITY ns_flows "http://ns.adobe.com/Flows/1.0/">
	<!ENTITY ns_extend "http://ns.adobe.com/Extensibility/1.0/">
	<!ENTITY ns_ai "http://ns.adobe.com/AdobeIllustrator/10.0/">
	<!ENTITY ns_graphs "http://ns.adobe.com/Graphs/1.0/">
]>
<svg version="1.1" id="Layer_1" xmlns:x="&ns_extend;" xmlns:i="&ns_ai;" xmlns:graph="&ns_graphs;"
	 xmlns="http://www.w3.org/2000/svg" xmlns:xlink="http://www.w3.org/1999/xlink" xmlns:a="http://ns.adobe.com/AdobeSVGViewerExtensions/3.0/"
	 x="0px" y="0px" width="168px" height="165px" viewBox="0 0 168 165" enable-background="new 0 0 168 165" xml:space="preserve">
<path fill="#96B49C" stroke="#96B49C" stroke-miterlimit="10" d="M111.52,153.11c0-18.13,0-36.08,0-54.801
	c5.271,0,10.37,0.181,15.45-0.119c1.37-0.08,3.62-1.471,3.82-2.561c1.1-6.01,1.69-12.12,2.53-18.77c-7.34,0-14.261,0-21.67,0
	c0-5.94-0.45-11.4,0.13-16.75c0.59-5.48,3.489-7.45,9.83-7.73c3.97-0.18,7.949-0.03,12.68-0.03c0-6.47,0.13-12.56-0.13-18.65
	c-0.04-0.9-1.88-2.44-2.92-2.46c-7.13-0.18-14.45-0.99-21.38,0.22c-12.74,2.23-20.74,12.5-21.13,25.5
	c-0.19,6.31-0.03,12.64-0.03,19.59c-6.28,0-12.33,0-18.7,0c0,7.38,0,14.141,0,21.62c5.99,0,12.029,0,18.36,0
	c0,18.79,0,36.86,0,55.271c-1.48,0.079-2.761,0.22-4.04,0.22c-20.5,0.01-41,0.02-61.5,0c-7.71-0.01-10.47-2.8-10.48-10.58
	c-0.01-40.83-0.01-81.66,0-122.49c0.01-7.42,2.85-10.25,10.28-10.25c40.83-0.01,81.66-0.01,122.49,0
	c7.739,0.01,10.54,2.8,10.55,10.49c0.01,40.84,0.01,81.67,0,122.5c-0.01,7.5-2.78,10.31-10.19,10.32
	c-10.83,0.02-21.66-0.021-32.489-0.061C112.67,153.59,112.37,153.4,111.52,153.11z"/>
<g>
</g>
<g>
</g>
<g>
</g>
<g>
</g>
<g>
</g>
</svg>
