<?xml version="1.0" encoding="utf-8"?>
<!-- Generator: Adobe Illustrator 16.0.0, SVG Export Plug-In . SVG Version: 6.00 Build 0)  -->
<!DOCTYPE svg PUBLIC "-//W3C//DTD SVG 1.1//EN" "http://www.w3.org/Graphics/SVG/1.1/DTD/svg11.dtd" [
	<!ENTITY ns_flows "http://ns.adobe.com/Flows/1.0/">
	<!ENTITY ns_extend "http://ns.adobe.com/Extensibility/1.0/">
	<!ENTITY ns_ai "http://ns.adobe.com/AdobeIllustrator/10.0/">
	<!ENTITY ns_graphs "http://ns.adobe.com/Graphs/1.0/">
]>
<svg version="1.1" id="GOL" xmlns:x="&ns_extend;" xmlns:i="&ns_ai;" xmlns:graph="&ns_graphs;"
	 xmlns="http://www.w3.org/2000/svg" xmlns:xlink="http://www.w3.org/1999/xlink" xmlns:a="http://ns.adobe.com/AdobeSVGViewerExtensions/3.0/"
	 x="0px" y="0px" width="598.469px" height="284.986px" viewBox="0 0 598.469 284.986" enable-background="new 0 0 598.469 284.986"
	 xml:space="preserve">
<g id="logo">
	<path fill="none" d="M151.275,164.653c28.33-7.83,73.81,22.27,78.87,58.92c-33.76,11.89-85.24-11.03-88.88-38.88
		c5.14-7.12,10.61-5.3,16.61-1.67c9.25,5.6,18.78,10.76,28.19,16.1c0.45-0.71,0.91-1.42,1.37-2.13
		c-9.87-6.45-19.4-13.53-29.71-19.15c-9.06-4.93-13.52-13.02-14.9-21.788c-2.03-12.962-1.56-26.32-2.16-39.5
		c-1.39,1.198-1.71,2.438-1.77,3.688c-0.61,12.34-1.01,24.7-1.89,37.021c-0.17,2.27-1.76,5.26-3.61,6.31
		c-1.23,0.71-4.87-0.84-6.06-2.42c-3.43-4.55-7.3-9.26-8.97-14.55c-10.7-33.87-5.09-64.75,19.64-90.802
		c13.27-13.988,27.93-26.64,41.99-39.92c-1.25-0.14-3.08-0.528-4.91-0.54c-22.81-0.028-45.61,0.062-68.42-0.05
		c-6.99-0.028-11.19,3.392-13.96,9.48c-7.58,16.59-12.74,33.8-14.1,52.08c-2.36,31.608,7.66,57.75,33.62,76.949
		c2.26,1.681,4.56,3.319,7.54,5.489c-48.54,1.29-73.29,37.88-105.5,64.57c25.02,11.689,40,32.59,55.34,51.13
		c18.18-19.79,36-38.81,53.33-58.25c6.56-7.36,12.02-15.7,17.89-23.49c1.96,12.512,13.26,20.472,22.26,30.301
		c14.08,15.381,27.57,31.311,41.31,47c1.55,1.771,3.08,3.539,4.86,5.591c16.91-19.48,30.7-41.262,55.77-52.07
		c-12.67-11.75-24.33-23.41-36.89-34c-19.34-16.3-39.28-31.92-69.25-30c4.09-3.01,6.38-4.33,8.22-6.11
		c7.28-7.02,15.93-13.188,21.34-21.46c21.93-33.54,16.52-68.42,2.72-103.18c-2.12-5.34-6.81-4.75-10.2-1.79
		c-11.69,10.22-23.01,20.87-34.44,31.34C172.545,88.363,176.125,140.623,151.275,164.653z"/>
	<path fill="none" d="M129.786,166.052c-27.45-12.408-78.06,23.521-80.31,57.03c30.61,13.37,85.27-10.66,88.8-38.87
		c-5.3-5.64-10.71-4.979-16.84-1.188c-9.11,5.648-18.59,10.729-27.91,16.05c-0.47-0.75-0.94-1.49-1.4-2.23
		c9.53-6.22,18.74-13.038,28.71-18.43C126.056,175.583,130.255,173.312,129.786,166.052z"/>
	<path fill="none" d="M139.945,162.812c-3.21,4.34-6.65,6.949-6.52,9.37c0.13,2.479,3.83,6.72,5.84,6.648
		c2.51-0.08,6.52-3.56,6.87-6C146.476,170.433,143.036,167.493,139.945,162.812z"/>
	
		<linearGradient id="SVGID_1_" gradientUnits="userSpaceOnUse" x1="20.2661" y1="44.2688" x2="271.0259" y2="44.2688" gradientTransform="matrix(1 0 0 -1 -6 189.9858)">
		<stop  offset="0" style="stop-color:#01944E"/>
		<stop  offset="1" style="stop-color:#026C3C"/>
		<a:midPointStop  offset="0" style="stop-color:#01944E"/>
		<a:midPointStop  offset="0.5" style="stop-color:#01944E"/>
		<a:midPointStop  offset="1" style="stop-color:#026C3C"/>
	</linearGradient>
	<path fill="url(#SVGID_1_)" d="M228.136,190.072c-19.34-16.3-39.28-31.92-69.25-30c4.09-3.01,6.38-4.33,8.22-6.11
		c7.28-7.02,15.93-13.188,21.34-21.46c21.93-33.54,16.52-68.42,2.72-103.18c-2.12-5.34-6.81-4.75-10.2-1.79
		c-11.69,10.22-23.01,20.87-34.44,31.34c26.02,29.49,24.082,82.6-0.768,106.629c-1.464-2.967-2.415-6.16-2.932-9.449
		c-2.03-12.96-1.56-26.318-2.16-39.5c-1.39,1.2-1.71,2.44-1.77,3.69c-0.61,12.34-1.01,24.7-1.89,37.021
		c-0.17,2.27-1.76,5.26-3.61,6.31c-1.23,0.71-4.87-0.84-6.06-2.42c-3.43-4.55-7.3-9.26-8.97-14.55
		c-10.7-33.87-5.09-64.75,19.64-90.802c13.27-13.988,27.93-26.64,41.99-39.92c-1.25-0.14-3.08-0.528-4.91-0.54
		c-22.81-0.028-45.61,0.062-68.42-0.05c-6.99-0.029-11.19,3.392-13.96,9.48c-7.58,16.59-12.74,33.8-14.1,52.08
		c-2.36,31.608,7.66,57.75,33.62,76.948c2.26,1.682,4.56,3.32,7.54,5.49c-48.54,1.29-73.29,37.88-105.5,64.57
		c25.02,11.688,40,32.59,55.34,51.13c18.18-19.79,36-38.81,53.33-58.25c6.56-7.36,12.02-15.7,17.89-23.49
		c1.96,12.512,13.26,20.472,22.26,30.3c14.08,15.382,27.57,31.312,41.31,47c1.55,1.771,3.08,3.54,4.86,5.592
		c16.91-19.48,30.7-41.262,55.77-52.07C252.356,212.322,240.696,200.662,228.136,190.072z M49.476,223.083
		c2.25-33.51,52.859-69.438,80.31-57.03c0.47,7.262-3.73,9.53-8.95,12.36c-9.97,5.39-19.18,12.21-28.71,18.43
		c0.46,0.74,0.93,1.48,1.4,2.23c9.32-5.32,18.8-10.4,27.91-16.05c6.13-3.79,11.54-4.45,16.84,1.188
		C134.746,212.423,80.086,236.453,49.476,223.083z M139.265,178.832c-2.01,0.07-5.71-4.17-5.84-6.648
		c-0.13-2.419,3.31-5.029,6.52-9.37c3.09,4.68,6.53,7.62,6.19,10.02C145.785,175.272,141.775,178.752,139.265,178.832z
		 M141.266,184.692c5.14-7.12,10.61-5.3,16.61-1.67c9.25,5.6,18.78,10.76,28.19,16.1c0.45-0.71,0.91-1.42,1.37-2.13
		c-9.87-6.45-19.4-13.53-29.71-19.15c-5.663-3.081-9.528-7.396-11.968-12.341c28.33-7.83,79.327,21.422,84.388,58.071
		C196.386,235.462,144.906,212.542,141.266,184.692z"/>
</g>
<g>
	<path fill="#666666" d="M329.723,36.802h-13.76v50.48h-6v-50.48h-13.759v-5.52h33.519V36.802L329.723,36.802z"/>
	<path fill="#666666" d="M328.764,47.283h4.078l1.041,4.24h0.24c0.746-1.546,1.719-2.76,2.92-3.642
		c1.199-0.88,2.652-1.318,4.359-1.318c1.227,0,2.612,0.238,4.16,0.72l-1.119,5.84c-1.39-0.479-2.615-0.72-3.683-0.72
		c-1.707,0-3.094,0.494-4.16,1.479c-1.065,0.987-1.76,2.31-2.077,3.96v29.44h-5.763v-40L328.764,47.283L328.764,47.283z"/>
	<path fill="#666666" d="M350.602,35.123c0-1.28,0.359-2.32,1.08-3.12c0.722-0.8,1.666-1.2,2.84-1.2c1.175,0,2.146,0.39,2.923,1.16
		c0.771,0.773,1.157,1.827,1.157,3.16c0,1.28-0.387,2.28-1.157,3c-0.775,0.72-1.748,1.08-2.923,1.08c-1.174,0-2.118-0.373-2.84-1.12
		C350.961,37.336,350.602,36.35,350.602,35.123z M351.641,47.283h5.763v40h-5.763V47.283z"/>
	<path fill="#666666" d="M374.202,77.763c0,1.866,0.252,3.198,0.76,4c0.506,0.8,1.213,1.198,2.119,1.198
		c1.121,0,2.428-0.292,3.92-0.88l0.563,4.642c-0.695,0.428-1.671,0.771-2.923,1.04c-1.254,0.266-2.387,0.398-3.397,0.398
		c-2.027,0-3.668-0.627-4.92-1.88c-1.254-1.252-1.881-3.453-1.881-6.6v-48.4h5.76L374.202,77.763L374.202,77.763z"/>
	<path fill="#666666" d="M392.84,77.763c0,1.866,0.252,3.198,0.76,4c0.509,0.8,1.214,1.198,2.119,1.198
		c1.121,0,2.429-0.292,3.92-0.88l0.563,4.642c-0.695,0.428-1.668,0.771-2.92,1.04c-1.254,0.266-2.39,0.398-3.4,0.398
		c-2.026,0-3.668-0.627-4.92-1.88c-1.254-1.252-1.881-3.453-1.881-6.6v-48.4h5.76L392.84,77.763L392.84,77.763z"/>
	<path fill="#666666" d="M405.239,35.123c0-1.28,0.358-2.32,1.08-3.12c0.721-0.8,1.666-1.2,2.84-1.2c1.172,0,2.145,0.39,2.92,1.16
		c0.771,0.773,1.16,1.827,1.16,3.16c0,1.28-0.39,2.28-1.16,3c-0.773,0.72-1.748,1.08-2.92,1.08c-1.174,0-2.119-0.373-2.84-1.12
		C405.598,37.336,405.239,36.35,405.239,35.123z M406.278,47.283h5.762v40h-5.762V47.283z"/>
	<path fill="#666666" d="M427.877,47.283v24.48c0,4.054,0.412,6.946,1.24,8.68c0.826,1.731,2.332,2.6,4.52,2.6
		c1.121,0,2.121-0.226,3-0.68c0.881-0.453,1.668-1.053,2.361-1.8c0.691-0.746,1.307-1.602,1.84-2.562
		c0.531-0.96,0.959-1.944,1.279-2.96v-27.76h5.76v28.64c0,1.92,0.066,3.907,0.201,5.96c0.133,2.056,0.332,3.854,0.6,5.4h-4.08
		l-1.438-5.6h-0.24c-0.906,1.76-2.213,3.294-3.92,4.6s-3.84,1.96-6.4,1.96c-1.707,0-3.196-0.214-4.479-0.64
		c-1.279-0.428-2.373-1.2-3.279-2.32c-0.908-1.12-1.588-2.652-2.041-4.6c-0.453-1.946-0.68-4.44-0.68-7.48v-25.92L427.877,47.283
		L427.877,47.283z"/>
	<path fill="#666666" d="M476.12,87.283v-23.76c0-2.133-0.068-3.96-0.201-5.48c-0.133-1.52-0.414-2.76-0.84-3.72
		c-0.428-0.96-1.014-1.667-1.76-2.12c-0.748-0.453-1.734-0.68-2.961-0.68c-1.813,0-3.349,0.707-4.601,2.12
		c-1.254,1.414-2.121,3.026-2.6,4.84v28.8h-5.762v-40h4.079l1.039,4.24h0.24c1.121-1.546,2.453-2.8,4-3.76
		c1.547-0.962,3.521-1.44,5.92-1.44c2.027,0,3.693,0.44,5,1.32c1.31,0.88,2.332,2.438,3.08,4.68c0.961-1.866,2.332-3.333,4.121-4.4
		c1.785-1.064,3.746-1.6,5.879-1.6c1.76,0,3.269,0.228,4.521,0.68c1.252,0.454,2.266,1.253,3.039,2.4
		c0.771,1.146,1.348,2.667,1.721,4.56c0.373,1.896,0.561,4.28,0.561,7.16v26.16h-5.76v-25.44c0-3.466-0.334-6.053-1-7.76
		c-0.668-1.706-2.201-2.56-4.602-2.56c-2.027,0-3.642,0.627-4.841,1.88c-1.198,1.253-2.038,2.947-2.52,5.08v28.8H476.12
		L476.12,87.283z"/>
	<path fill="#666666" d="M315.643,145.363h15.439v24.64c-1.492,1.389-3.412,2.44-5.76,3.16c-2.349,0.72-4.722,1.08-7.119,1.08
		c-2.988,0-5.693-0.56-8.121-1.68s-4.492-2.866-6.199-5.24c-1.707-2.373-3.027-5.373-3.959-9c-0.934-3.626-1.4-7.973-1.4-13.04
		c0-5.226,0.56-9.666,1.68-13.32c1.121-3.651,2.627-6.64,4.521-8.96c1.895-2.318,4.055-4.013,6.479-5.08
		c2.426-1.064,4.92-1.6,7.479-1.6c2.562,0,4.707,0.174,6.441,0.52c1.732,0.35,3.211,0.813,4.438,1.4l-1.438,5.44
		c-1.068-0.586-2.334-1.04-3.801-1.36s-3.16-0.48-5.08-0.48c-1.867,0-3.654,0.4-5.359,1.2c-1.709,0.8-3.24,2.12-4.6,3.96
		c-1.361,1.84-2.441,4.253-3.24,7.24c-0.801,2.987-1.201,6.667-1.201,11.04c0,8,1.269,13.908,3.801,17.72
		c2.531,3.813,6.013,5.722,10.439,5.722c2.773,0,5.066-0.66,6.881-1.982v-16.178l-10.32-1.568L315.643,145.363L315.643,145.363z"/>
	<path fill="#666666" d="M339.083,121.123c0-1.28,0.359-2.318,1.08-3.12c0.721-0.8,1.666-1.198,2.84-1.198
		c1.172,0,2.146,0.388,2.92,1.158c0.773,0.773,1.16,1.827,1.16,3.16c0,1.28-0.387,2.28-1.16,3c-0.772,0.72-1.748,1.08-2.92,1.08
		c-1.174,0-2.119-0.373-2.84-1.12S339.083,122.35,339.083,121.123z M340.122,133.283h5.762v40h-5.762V133.283z"/>
	<path fill="#666666" d="M353.083,133.283h4.879v-2.24c0-5.012,0.721-8.64,2.16-10.88c1.438-2.24,3.893-3.358,7.359-3.358
		c1.387,0,2.641,0.078,3.762,0.238c1.119,0.16,2.266,0.508,3.438,1.04l-1.438,4.96c-0.961-0.426-1.855-0.706-2.683-0.84
		c-0.825-0.132-1.612-0.2-2.358-0.2c-1.068,0-1.896,0.213-2.48,0.642c-0.588,0.428-1.024,1.094-1.317,2s-0.48,2.066-0.562,3.479
		c-0.08,1.414-0.121,3.134-0.121,5.16h8.32v5.2h-8.32v34.8h-5.76v-34.8h-4.879V133.283L353.083,133.283z"/>
	<path fill="#666666" d="M372.122,133.283H377v-7.92l5.762-1.84v9.76h8.642v5.2h-8.642v23.84c0,2.348,0.279,4.04,0.84,5.08
		c0.562,1.04,1.479,1.56,2.761,1.56c1.065,0,1.985-0.12,2.76-0.358c0.771-0.24,1.613-0.546,2.521-0.92l1.119,4.56
		c-1.174,0.587-2.467,1.053-3.879,1.4c-1.414,0.346-2.895,0.52-4.438,0.52c-2.668,0-4.574-0.867-5.722-2.6
		c-1.146-1.733-1.721-4.546-1.721-8.44v-24.64h-4.881L372.122,133.283L372.122,133.283z"/>
	<path fill="#666666" d="M413.321,153.283c0-7.2,1.237-12.493,3.719-15.88c2.479-3.386,6.014-5.08,10.602-5.08
		c4.906,0,8.521,1.734,10.841,5.2c2.319,3.467,3.479,8.72,3.479,15.76c0,7.254-1.252,12.56-3.76,15.92s-6.027,5.04-10.562,5.04
		c-4.905,0-8.52-1.732-10.84-5.2C414.481,165.577,413.321,160.323,413.321,153.283z M419.321,153.283c0,2.348,0.145,4.48,0.438,6.4
		c0.291,1.92,0.771,3.572,1.439,4.96c0.666,1.388,1.531,2.468,2.6,3.238c1.066,0.773,2.349,1.16,3.84,1.16
		c2.773,0,4.854-1.239,6.24-3.72c1.385-2.48,2.08-6.493,2.08-12.04c0-2.292-0.146-4.413-0.439-6.36
		c-0.295-1.944-0.772-3.611-1.438-5c-0.668-1.386-1.533-2.466-2.6-3.238c-1.068-0.772-2.351-1.16-3.843-1.16
		c-2.721,0-4.787,1.253-6.198,3.76C420.026,143.79,419.321,147.79,419.321,153.283z"/>
	<path fill="#666666" d="M445.401,133.283h4.879v-2.24c0-5.012,0.721-8.64,2.16-10.88c1.438-2.24,3.893-3.358,7.358-3.358
		c1.387,0,2.642,0.078,3.76,0.238c1.119,0.16,2.269,0.508,3.439,1.04l-1.439,4.96c-0.959-0.426-1.854-0.706-2.68-0.84
		c-0.828-0.132-1.613-0.2-2.359-0.2c-1.067,0-1.895,0.213-2.479,0.642c-0.588,0.428-1.027,1.094-1.32,2s-0.479,2.066-0.559,3.479
		c-0.08,1.414-0.121,3.134-0.121,5.16h8.32v5.2h-8.32v34.8h-5.76v-34.8h-4.879V133.283L445.401,133.283z"/>
	<path fill="#666666" d="M513.719,173.283h-26.961v-56h6v50.48h20.961V173.283z"/>
	<path fill="#666666" d="M519.479,121.123c0-1.28,0.359-2.318,1.078-3.12c0.724-0.8,1.668-1.198,2.843-1.198
		c1.172,0,2.145,0.388,2.92,1.158c0.771,0.773,1.159,1.827,1.159,3.16c0,1.28-0.389,2.28-1.159,3c-0.773,0.72-1.748,1.08-2.92,1.08
		c-1.175,0-2.119-0.373-2.843-1.12C519.838,123.336,519.479,122.35,519.479,121.123z M520.518,133.283h5.763v40h-5.763V133.283z"/>
	<path fill="#666666" d="M533.479,133.283h4.88v-2.24c0-5.012,0.721-8.64,2.159-10.88c1.439-2.24,3.894-3.358,7.359-3.358
		c1.387,0,2.641,0.078,3.76,0.238s2.269,0.508,3.439,1.04l-1.439,4.96c-0.959-0.426-1.854-0.706-2.68-0.84
		c-0.828-0.132-1.613-0.2-2.359-0.2c-1.067,0-1.895,0.213-2.479,0.642c-0.588,0.428-1.027,1.094-1.32,2s-0.479,2.066-0.559,3.479
		c-0.08,1.414-0.121,3.134-0.121,5.16h8.32v5.2h-8.32v34.8h-5.76v-34.8h-4.882v-5.2H533.479z"/>
	<path fill="#666666" d="M580.756,170.562c-1.279,1.174-2.908,2.08-4.881,2.72s-4.053,0.96-6.24,0.96
		c-2.506,0-4.68-0.494-6.52-1.479c-1.84-0.986-3.359-2.4-4.562-4.24c-1.198-1.84-2.08-4.04-2.641-6.602
		c-0.56-2.56-0.84-5.438-0.84-8.64c0-6.826,1.254-12.026,3.76-15.6c2.508-3.572,6.053-5.36,10.641-5.36
		c1.492,0,2.974,0.188,4.439,0.56c1.467,0.374,2.787,1.12,3.961,2.24c1.172,1.12,2.119,2.694,2.84,4.72
		c0.722,2.027,1.08,4.667,1.08,7.922c0,0.906-0.041,1.88-0.121,2.92c-0.078,1.04-0.172,2.118-0.276,3.238h-20.32
		c0,2.293,0.186,4.374,0.559,6.24c0.373,1.868,0.961,3.454,1.763,4.76c0.801,1.309,1.825,2.32,3.08,3.04
		c1.252,0.722,2.812,1.08,4.68,1.08c1.438,0,2.867-0.266,4.281-0.8c1.409-0.532,2.489-1.172,3.237-1.92L580.756,170.562z
		 M576.276,149.123c0.104-4-0.453-6.932-1.681-8.8c-1.229-1.866-2.908-2.8-5.041-2.8c-2.453,0-4.397,0.934-5.84,2.8
		c-1.438,1.868-2.293,4.8-2.561,8.8H576.276z"/>
	<path fill="#666666" d="M308.764,223.763l-3.438-8.802h-0.24l0.881,8.802v35.52h-5.76v-56.88h3.601l20.721,36.32l3.278,8.398h0.32
		l-0.881-8.398v-35.44h5.76v56.88h-3.68L308.764,223.763z"/>
	<path fill="#666666" d="M366.762,256.562c-1.276,1.174-2.905,2.08-4.879,2.72c-1.975,0.64-4.055,0.96-6.24,0.96
		c-2.508,0-4.68-0.494-6.52-1.479c-1.84-0.986-3.361-2.4-4.561-4.24c-1.2-1.84-2.08-4.04-2.642-6.602
		c-0.561-2.56-0.84-5.438-0.84-8.64c0-6.826,1.252-12.026,3.76-15.6c2.506-3.572,6.054-5.36,10.642-5.36
		c1.491,0,2.973,0.188,4.438,0.56c1.467,0.374,2.785,1.12,3.959,2.24s2.121,2.694,2.84,4.72c0.724,2.027,1.08,4.667,1.08,7.921
		c0,0.907-0.039,1.881-0.119,2.921s-0.174,2.118-0.278,3.238h-20.32c0,2.293,0.188,4.374,0.561,6.24
		c0.373,1.868,0.962,3.454,1.763,4.76c0.799,1.309,1.826,2.32,3.08,3.04c1.252,0.722,2.811,1.08,4.68,1.08
		c1.438,0,2.865-0.266,4.279-0.8c1.412-0.532,2.491-1.172,3.237-1.92L366.762,256.562z M362.284,235.123
		c0.104-4-0.455-6.932-1.683-8.8c-1.227-1.866-2.905-2.8-5.039-2.8c-2.452,0-4.399,0.934-5.842,2.8
		c-1.438,1.868-2.293,4.8-2.559,8.8H362.284z"/>
	<path fill="#666666" d="M371.883,219.283h4.879v-7.92l5.763-1.84v9.76h8.641v5.2h-8.641v23.84c0,2.348,0.278,4.04,0.84,5.08
		c0.561,1.04,1.479,1.56,2.76,1.56c1.066,0,1.986-0.12,2.76-0.358c0.773-0.24,1.613-0.546,2.521-0.92l1.121,4.56
		c-1.177,0.587-2.47,1.053-3.882,1.4c-1.413,0.346-2.895,0.52-4.438,0.52c-2.668,0-4.574-0.867-5.721-2.6
		c-1.147-1.733-1.722-4.546-1.722-8.44v-24.64h-4.881V219.283L371.883,219.283z"/>
	<path fill="#666666" d="M419.243,219.283l7.121,23.36l1.438,7.68h0.16l1.201-7.84l5.438-23.2h5.439l-10.641,40.88h-3.279
		l-8.08-26.24l-1.121-6.72h-0.16l-1.119,6.8l-7.84,26.16h-3.278l-10.959-40.88h6l6.157,23.28l1.119,7.76H407l1.441-7.92l6.559-23.12
		H419.243L419.243,219.283z"/>
	<path fill="#666666" d="M442.604,239.283c0-7.2,1.24-12.493,3.722-15.88c2.479-3.386,6.012-5.08,10.6-5.08
		c4.906,0,8.521,1.734,10.84,5.2c2.32,3.467,3.48,8.72,3.48,15.76c0,7.254-1.254,12.56-3.76,15.92
		c-2.511,3.36-6.027,5.04-10.562,5.04c-4.908,0-8.521-1.732-10.84-5.2C443.764,251.577,442.604,246.323,442.604,239.283z
		 M448.604,239.283c0,2.348,0.146,4.48,0.439,6.4s0.773,3.572,1.439,4.96s1.53,2.468,2.602,3.238c1.064,0.773,2.346,1.16,3.84,1.16
		c2.771,0,4.854-1.238,6.238-3.72c1.387-2.48,2.08-6.493,2.08-12.04c0-2.292-0.146-4.413-0.439-6.36
		c-0.293-1.944-0.771-3.611-1.438-5c-0.666-1.386-1.533-2.466-2.601-3.238c-1.065-0.772-2.348-1.16-3.84-1.16
		c-2.721,0-4.789,1.253-6.201,3.76C449.309,229.79,448.604,233.79,448.604,239.283z"/>
	<path fill="#666666" d="M478.922,219.283h4.08l1.041,4.24h0.24c0.746-1.546,1.719-2.76,2.92-3.642
		c1.199-0.88,2.652-1.318,4.358-1.318c1.228,0,2.611,0.24,4.158,0.72l-1.119,5.84c-1.387-0.479-2.612-0.72-3.68-0.72
		c-1.707,0-3.094,0.494-4.16,1.479c-1.065,0.987-1.76,2.31-2.08,3.96v29.44h-5.76L478.922,219.283L478.922,219.283z"/>
	<path fill="#666666" d="M509.641,241.283h-3.039v18h-5.76v-56h5.76v34.08l2.642-1.12l9.36-16.96h6.64l-9.439,16.16l-2.801,2.56
		l3.281,3.12l10.319,18.16h-6.883L509.641,241.283z"/>
</g>
</svg>
