<?xml version="1.0" encoding="utf-8"?>
<!-- Generator: Adobe Illustrator 16.0.0, SVG Export Plug-In . SVG Version: 6.00 Build 0)  -->
<!DOCTYPE svg PUBLIC "-//W3C//DTD SVG 1.1//EN" "http://www.w3.org/Graphics/SVG/1.1/DTD/svg11.dtd">
<svg version="1.1" id="Layer_1" xmlns="http://www.w3.org/2000/svg" xmlns:xlink="http://www.w3.org/1999/xlink" x="0px" y="0px"
	 width="166px" height="28px" viewBox="0 0 166 28" enable-background="new 0 0 166 28" xml:space="preserve">
<g>
	<path d="M16.632,17.196c0,1.098-0.185,2.142-0.555,3.132c-0.37,0.99-0.889,1.858-1.556,2.605c-0.668,0.747-1.462,1.341-2.382,1.782
		c-0.921,0.44-1.931,0.661-3.031,0.661c-0.686,0-1.327-0.095-1.922-0.283c-0.596-0.189-1.155-0.49-1.678-0.904v0.81H1.62V2.589
		h3.915l0.027,7.56c0.45-0.36,0.985-0.648,1.606-0.864C7.79,9.069,8.442,8.961,9.126,8.961c0.954,0,1.881,0.212,2.781,0.635
		c0.899,0.423,1.701,1.003,2.403,1.741c0.702,0.738,1.264,1.606,1.688,2.605C16.42,14.941,16.632,16.026,16.632,17.196z
		 M12.69,17.196c0-0.72-0.108-1.377-0.325-1.971c-0.217-0.594-0.52-1.103-0.908-1.525c-0.389-0.423-0.85-0.747-1.382-0.972
		C9.542,12.502,8.95,12.39,8.299,12.39c-0.416,0-0.895,0.085-1.436,0.256c-0.542,0.171-0.994,0.392-1.355,0.662v7.506
		c0.849,0.773,1.807,1.16,2.873,1.16c0.614,0,1.188-0.116,1.721-0.351c0.533-0.233,0.989-0.563,1.369-0.985s0.678-0.928,0.895-1.512
		S12.69,17.898,12.69,17.196z"/>
	<path d="M34.344,17.169c0,0.252-0.013,0.513-0.04,0.783c-0.027,0.27-0.059,0.549-0.095,0.837H21.735
		c0.144,0.45,0.347,0.877,0.607,1.282s0.581,0.756,0.958,1.054c0.378,0.297,0.806,0.53,1.283,0.701
		c0.477,0.172,1.003,0.257,1.58,0.257c0.702,0,1.404-0.121,2.106-0.364s1.287-0.571,1.755-0.985l2.457,2.457
		c-1.08,0.81-2.138,1.381-3.172,1.714c-1.035,0.333-2.129,0.5-3.281,0.5c-1.17,0-2.264-0.216-3.28-0.648
		c-1.017-0.432-1.899-1.017-2.646-1.755c-0.747-0.738-1.336-1.606-1.769-2.605s-0.648-2.065-0.648-3.2
		c0-1.134,0.216-2.2,0.648-3.199s1.026-1.867,1.782-2.605c0.756-0.738,1.638-1.323,2.646-1.755c1.008-0.432,2.088-0.648,3.24-0.648
		c1.098,0,2.151,0.203,3.159,0.608c1.008,0.405,1.899,0.968,2.673,1.688s1.386,1.579,1.836,2.578
		C34.119,14.86,34.344,15.963,34.344,17.169z M30.267,15.657c-0.306-0.99-0.851-1.787-1.634-2.39
		c-0.783-0.603-1.669-0.905-2.659-0.905c-0.972,0-1.845,0.302-2.619,0.905s-1.314,1.4-1.62,2.39H30.267z"/>
	<path fill="#AD485A" d="M48.6,24.999h-3.888v-0.837c-0.684,0.468-1.409,0.792-2.173,0.972c-0.766,0.18-1.553,0.271-2.363,0.271
		c-0.756,0-1.44-0.113-2.052-0.338c-0.612-0.225-1.144-0.549-1.593-0.972c-0.45-0.423-0.796-0.923-1.04-1.499
		c-0.243-0.575-0.364-1.215-0.364-1.917c0-0.882,0.193-1.651,0.581-2.308c0.387-0.657,0.913-1.206,1.58-1.647
		c0.666-0.441,1.444-0.77,2.335-0.986c0.891-0.216,1.849-0.324,2.875-0.324h2.241c0-0.918-0.297-1.647-0.891-2.187
		c-0.594-0.54-1.449-0.81-2.565-0.81c-0.54,0-1.098,0.099-1.674,0.297c-0.576,0.198-1.152,0.558-1.728,1.08l-2.295-2.322
		c0.828-0.792,1.786-1.404,2.875-1.836c1.089-0.432,2.209-0.648,3.361-0.648c1.08,0,2.042,0.171,2.885,0.513
		c0.843,0.342,1.524,0.783,2.042,1.323c0.679,0.684,1.157,1.449,1.435,2.295c0.276,0.846,0.416,1.926,0.416,3.24V24.999z
		 M44.712,21.111v-2.889H42.93c-0.54,0-1.048,0.036-1.525,0.108c-0.477,0.072-0.891,0.193-1.242,0.364
		c-0.351,0.171-0.63,0.392-0.837,0.661c-0.207,0.271-0.31,0.595-0.31,0.973c0,0.54,0.211,0.981,0.634,1.323
		c0.423,0.342,0.967,0.513,1.633,0.513c0.576,0,1.147-0.09,1.715-0.271C43.564,21.714,44.136,21.453,44.712,21.111z"/>
	<path d="M65.231,24.999h-3.969v-0.81c-0.504,0.414-1.053,0.715-1.647,0.904c-0.594,0.188-1.224,0.283-1.89,0.283
		c-1.098,0-2.106-0.221-3.024-0.661c-0.918-0.441-1.71-1.035-2.376-1.782c-0.666-0.747-1.184-1.615-1.553-2.605
		s-0.553-2.034-0.553-3.132c0-1.169,0.211-2.254,0.634-3.253s0.986-1.867,1.688-2.605c0.702-0.738,1.503-1.318,2.403-1.741
		c0.9-0.423,1.827-0.635,2.781-0.635c0.666,0,1.314,0.09,1.944,0.27c0.63,0.18,1.17,0.432,1.62,0.756V2.589h3.942V24.999z
		 M61.316,20.814v-7.506c-0.18-0.126-0.388-0.247-0.623-0.365c-0.235-0.117-0.479-0.216-0.732-0.297s-0.506-0.144-0.759-0.189
		s-0.479-0.067-0.678-0.067c-0.65,0-1.242,0.112-1.775,0.337s-0.999,0.549-1.396,0.972c-0.397,0.423-0.705,0.931-0.921,1.525
		c-0.217,0.594-0.326,1.251-0.326,1.971c0,0.702,0.109,1.346,0.326,1.931s0.515,1.089,0.894,1.512s0.835,0.752,1.369,0.985
		c0.533,0.234,1.116,0.351,1.748,0.351C59.474,21.975,60.431,21.588,61.316,20.814z"/>
	<path d="M83.753,17.196c0,1.17-0.216,2.255-0.648,3.253c-0.432,0.999-1.026,1.863-1.782,2.593c-0.756,0.729-1.643,1.305-2.66,1.728
		c-1.017,0.423-2.102,0.635-3.253,0.635c-1.152,0-2.232-0.212-3.24-0.635c-1.008-0.423-1.89-1.003-2.646-1.741
		c-0.756-0.738-1.35-1.606-1.782-2.605s-0.648-2.075-0.648-3.227c0-1.134,0.22-2.2,0.662-3.199c0.44-0.999,1.039-1.872,1.795-2.619
		c0.756-0.747,1.638-1.332,2.646-1.755c1.008-0.423,2.079-0.635,3.213-0.635c1.152,0,2.236,0.212,3.253,0.635
		c1.017,0.423,1.904,0.999,2.66,1.728s1.35,1.598,1.782,2.605C83.537,14.964,83.753,16.044,83.753,17.196z M79.865,17.196
		c0-0.666-0.117-1.287-0.35-1.863c-0.233-0.576-0.552-1.08-0.956-1.512c-0.404-0.432-0.875-0.769-1.414-1.012
		c-0.538-0.243-1.112-0.365-1.722-0.365c-0.61,0-1.185,0.122-1.723,0.365c-0.538,0.243-1.009,0.581-1.413,1.012
		c-0.404,0.432-0.722,0.937-0.956,1.512c-0.233,0.576-0.35,1.197-0.35,1.863c0,0.667,0.117,1.288,0.35,1.863s0.552,1.08,0.956,1.512
		c0.404,0.432,0.875,0.77,1.413,1.013c0.539,0.242,1.113,0.364,1.723,0.364c0.61,0,1.184-0.122,1.722-0.364
		c0.539-0.243,1.01-0.581,1.414-1.013c0.404-0.433,0.722-0.937,0.956-1.512S79.865,17.862,79.865,17.196z"/>
	<path d="M99.548,24.999H95.66v-9.315c0-0.558-0.086-1.048-0.258-1.472C95.23,13.79,95,13.439,94.711,13.16
		c-0.29-0.279-0.62-0.486-0.99-0.621c-0.371-0.135-0.755-0.203-1.152-0.203c-0.596,0-1.184,0.104-1.762,0.311
		c-0.579,0.207-1.103,0.536-1.573,0.985v11.367h-3.888V9.393h3.888l0.027,1.161c0.233-0.234,0.521-0.45,0.864-0.648
		c0.342-0.198,0.697-0.365,1.066-0.5c0.369-0.135,0.747-0.239,1.134-0.311c0.387-0.072,0.76-0.108,1.121-0.108
		c0.792,0,1.552,0.126,2.281,0.378s1.377,0.639,1.944,1.161c0.567,0.522,1.021,1.197,1.364,2.025
		c0.342,0.828,0.513,1.809,0.513,2.943V24.999z"/>
	<path d="M117.8,17.196c0,1.17-0.216,2.255-0.648,3.253c-0.432,0.999-1.025,1.863-1.782,2.593c-0.756,0.729-1.643,1.305-2.659,1.728
		s-2.102,0.635-3.253,0.635c-1.152,0-2.232-0.212-3.24-0.635c-1.009-0.423-1.891-1.003-2.646-1.741s-1.35-1.606-1.782-2.605
		c-0.432-0.999-0.647-2.075-0.647-3.227c0-1.134,0.22-2.2,0.661-3.199s1.04-1.872,1.796-2.619c0.756-0.747,1.638-1.332,2.646-1.755
		c1.008-0.423,2.079-0.635,3.214-0.635c1.151,0,2.236,0.212,3.253,0.635c1.017,0.423,1.903,0.999,2.659,1.728
		c0.757,0.729,1.351,1.598,1.782,2.605C117.584,14.964,117.8,16.044,117.8,17.196z M113.911,17.196c0-0.666-0.116-1.287-0.35-1.863
		c-0.233-0.576-0.552-1.08-0.956-1.512c-0.403-0.432-0.875-0.769-1.413-1.012s-1.112-0.365-1.723-0.365
		c-0.609,0-1.185,0.122-1.723,0.365s-1.01,0.581-1.413,1.012c-0.404,0.432-0.723,0.937-0.956,1.512
		c-0.233,0.576-0.35,1.197-0.35,1.863c0,0.667,0.116,1.288,0.35,1.863s0.552,1.08,0.956,1.512c0.403,0.432,0.875,0.77,1.413,1.013
		c0.538,0.242,1.113,0.364,1.723,0.364c0.61,0,1.185-0.122,1.723-0.364c0.538-0.243,1.01-0.581,1.413-1.013
		c0.404-0.433,0.723-0.937,0.956-1.512S113.911,17.862,113.911,17.196z"/>
	<path d="M130.598,11.013l-2.079,3.294c-0.378-0.414-0.797-0.778-1.256-1.094c-0.459-0.314-0.923-0.472-1.391-0.472
		c-0.252,0-0.526,0.059-0.823,0.175c-0.297,0.117-0.576,0.311-0.837,0.581s-0.481,0.625-0.661,1.066
		c-0.181,0.441-0.271,0.985-0.271,1.634v8.802h-3.888V9.393h3.888v1.674c0.468-0.666,0.985-1.179,1.553-1.539
		c0.567-0.36,1.201-0.54,1.903-0.54c0.684,0,1.354,0.185,2.012,0.554C129.405,9.911,130.021,10.401,130.598,11.013z"/>
	<path d="M135.269,24.999h-4.131v-4.131h4.131V24.999z"/>
	<path d="M151.197,22.65c-0.792,0.9-1.746,1.584-2.861,2.052c-1.116,0.468-2.286,0.702-3.51,0.702c-1.135,0-2.205-0.207-3.212-0.621
		c-1.008-0.414-1.882-0.985-2.624-1.715c-0.741-0.729-1.327-1.597-1.756-2.605c-0.43-1.008-0.644-2.097-0.644-3.267
		c0-1.151,0.214-2.227,0.644-3.226c0.429-0.999,1.01-1.867,1.743-2.605c0.732-0.738,1.603-1.318,2.609-1.742
		c1.007-0.423,2.087-0.635,3.239-0.635c1.188,0,2.317,0.216,3.388,0.648c1.071,0.432,2.003,1.089,2.795,1.971l-2.619,2.673
		c-0.396-0.521-0.877-0.954-1.444-1.296c-0.567-0.342-1.256-0.513-2.065-0.513c-0.594,0-1.157,0.126-1.688,0.378
		c-0.531,0.252-0.999,0.59-1.404,1.012c-0.405,0.423-0.725,0.923-0.958,1.499c-0.234,0.577-0.352,1.188-0.352,1.836
		c0,0.648,0.117,1.26,0.352,1.836c0.233,0.576,0.549,1.075,0.944,1.498c0.396,0.424,0.864,0.761,1.404,1.013
		s1.107,0.378,1.701,0.378c0.773,0,1.476-0.185,2.105-0.554c0.63-0.368,1.135-0.841,1.513-1.417L151.197,22.65z"/>
	<path d="M164.941,24.999h-3.889v-0.837c-0.684,0.468-1.408,0.792-2.173,0.972c-0.766,0.18-1.553,0.271-2.362,0.271
		c-0.757,0-1.44-0.113-2.053-0.338c-0.611-0.225-1.143-0.549-1.593-0.972s-0.796-0.923-1.039-1.499
		c-0.243-0.575-0.365-1.215-0.365-1.917c0-0.882,0.193-1.651,0.581-2.308c0.387-0.657,0.913-1.206,1.579-1.647
		c0.666-0.441,1.444-0.77,2.336-0.986c0.891-0.216,1.85-0.324,2.875-0.324h2.241c0-0.918-0.297-1.647-0.891-2.187
		c-0.595-0.54-1.449-0.81-2.565-0.81c-0.54,0-1.098,0.099-1.674,0.297c-0.576,0.198-1.152,0.558-1.728,1.08l-2.296-2.322
		c0.828-0.792,1.787-1.404,2.876-1.836c1.089-0.432,2.209-0.648,3.361-0.648c1.08,0,2.042,0.171,2.885,0.513
		c0.843,0.342,1.524,0.783,2.042,1.323c0.68,0.684,1.157,1.449,1.435,2.295s0.416,1.926,0.416,3.24V24.999z M161.053,21.111v-2.889
		h-1.781c-0.54,0-1.049,0.036-1.525,0.108c-0.478,0.072-0.892,0.193-1.242,0.364c-0.352,0.171-0.631,0.392-0.837,0.661
		c-0.207,0.271-0.311,0.595-0.311,0.973c0,0.54,0.211,0.981,0.634,1.323s0.968,0.513,1.634,0.513c0.576,0,1.147-0.09,1.715-0.271
		C159.905,21.714,160.477,21.453,161.053,21.111z"/>
</g>
</svg>
