<?xml version="1.0" encoding="utf-8"?>
<!-- Generator: Adobe Illustrator 16.0.0, SVG Export Plug-In . SVG Version: 6.00 Build 0)  -->
<!DOCTYPE svg PUBLIC "-//W3C//DTD SVG 1.1//EN" "http://www.w3.org/Graphics/SVG/1.1/DTD/svg11.dtd">
<svg version="1.1" id="Layer_1" xmlns="http://www.w3.org/2000/svg" xmlns:xlink="http://www.w3.org/1999/xlink" x="0px" y="0px"
	 width="173px" height="130px" viewBox="0 0 173 130" enable-background="new 0 0 173 130" xml:space="preserve">
<g>
	
		<path fill-rule="evenodd" clip-rule="evenodd" fill="#FFFFFF" stroke="#95B39B" stroke-width="5" stroke-linecap="round" stroke-linejoin="round" stroke-miterlimit="10" d="
		M78.865,69.553c-3.813,1.77-7.628,3.54-11.53,5.351C62.046,63.507,56.81,52.222,51.457,40.688c0.746-0.346,1.424-0.661,2.102-0.975
		c7.286-3.382,14.57-6.767,21.858-10.144c17.149-7.944,36.547-1.23,45.159,15.625c0.188,0.37,0.411,0.722,0.612,1.07
		c5.098-1.899,7.838-7.136,6.353-12.23c-0.688-2.358-1.775-4.606-2.379-6.981c-1.945-7.661,0.875-14.713,7.906-19.846
		c6.161-4.497,12.473-3.581,18.642-0.069c5.795,3.299,9.732,8.449,13.112,14.039c1.485,2.456,2.764,5.037,4.208,7.694
		c-2.682,1.245-5.128,2.38-7.42,3.443c-2.398-3.823-4.519-7.729-7.166-11.239c-1.83-2.425-4.181-4.59-6.667-6.354
		c-3.972-2.819-7.345-2.638-10.464-0.067c-4.066,3.351-5.26,7.308-3.586,11.799c0.763,2.043,1.688,4.055,2.172,6.166
		c1.94,8.448-1.53,15.815-9.653,20.84c-0.41,0.254-0.828,0.496-1.082,0.649c0.883,3.232,1.988,6.291,2.533,9.445
		c2.6,15.056-5.246,29.908-19.067,36.361c-7.471,3.487-14.955,6.942-22.433,10.413c-0.626,0.29-1.251,0.581-1.976,0.917
		C78.91,99.795,73.677,88.519,68.386,77.119c3.87-1.796,7.673-3.561,11.614-5.39c3.828,4.762,8.398,4.711,13.507,2.048
		c3.807-1.984,7.792-3.629,11.676-5.467c4.091-1.936,5.868-5.008,5.39-9.512c-0.124-1.168,0.306-1.622,1.25-2.049
		c3.782-1.71,7.537-3.48,11.455-5.298c-0.229-0.663-0.422-1.216-0.639-1.839c-0.389,0.063-0.675,0.05-0.906,0.156
		c-3.522,1.614-7.056,3.208-10.545,4.892c-1.153,0.557-1.877,0.596-2.882-0.471c-2.614-2.776-5.927-3.602-9.453-2.083
		c-5.24,2.255-10.426,4.654-15.528,7.204C79.623,61.161,78.598,63.862,78.865,69.553z"/>
	
		<path fill-rule="evenodd" clip-rule="evenodd" fill="#FFFFFF" stroke="#95B39B" stroke-width="5" stroke-linecap="round" stroke-linejoin="round" stroke-miterlimit="10" d="
		M49.346,41.667c10.926,23.544,21.767,46.906,32.745,70.563c-0.672,0.313-1.344,0.624-2.014,0.936
		c-7.412,3.439-14.818,6.889-22.235,10.316c-17.081,7.893-37.225,0.575-45.153-16.484c-2.691-5.792-5.876-11.391-6.908-17.857
		c-2.363-14.793,5.435-29.714,18.993-36.064c7.59-3.556,15.205-7.062,22.807-10.59C48.14,42.226,48.701,41.966,49.346,41.667z"/>
	
		<path fill-rule="evenodd" clip-rule="evenodd" fill="#FFFFFF" stroke="#95B39B" stroke-width="5" stroke-linecap="round" stroke-linejoin="round" stroke-miterlimit="10" d="
		M97.39,69.524c-2.296,1.065-4.576,2.173-6.894,3.188c-3.811,1.668-7.45,0.378-9.035-3.143c-1.549-3.439-0.154-6.939,3.546-8.692
		c4.64-2.196,9.297-4.358,13.971-6.482c3.685-1.674,7.354-0.46,8.971,2.886c1.642,3.397,0.216,7.13-3.482,8.948
		C102.132,67.377,99.75,68.43,97.39,69.524z"/>
</g>
</svg>
