<?xml version="1.0" encoding="utf-8"?>
<!-- Generator: Adobe Illustrator 16.0.0, SVG Export Plug-In . SVG Version: 6.00 Build 0)  -->
<!DOCTYPE svg PUBLIC "-//W3C//DTD SVG 1.1//EN" "http://www.w3.org/Graphics/SVG/1.1/DTD/svg11.dtd" [
	<!ENTITY ns_flows "http://ns.adobe.com/Flows/1.0/">
	<!ENTITY ns_extend "http://ns.adobe.com/Extensibility/1.0/">
	<!ENTITY ns_ai "http://ns.adobe.com/AdobeIllustrator/10.0/">
	<!ENTITY ns_graphs "http://ns.adobe.com/Graphs/1.0/">
]>
<svg version="1.1" id="Layer_1" xmlns:x="&ns_extend;" xmlns:i="&ns_ai;" xmlns:graph="&ns_graphs;"
	 xmlns="http://www.w3.org/2000/svg" xmlns:xlink="http://www.w3.org/1999/xlink" xmlns:a="http://ns.adobe.com/AdobeSVGViewerExtensions/3.0/"
	 x="0px" y="0px" width="173px" height="130px" viewBox="0 0 173 130" enable-background="new 0 0 173 130" xml:space="preserve">
<g>
	<path fill="#96B49C" d="M78.865,69.553c-3.813,1.771-7.628,3.54-11.53,5.352C62.046,63.507,56.81,52.222,51.457,40.688
		c0.746-0.346,1.424-0.661,2.102-0.975c7.286-3.382,14.57-6.767,21.858-10.144c17.149-7.944,36.547-1.23,45.159,15.625
		c0.188,0.37,0.41,0.722,0.611,1.07c5.099-1.899,7.838-7.136,6.354-12.23c-0.688-2.358-1.775-4.606-2.379-6.981
		c-1.945-7.661,0.875-14.713,7.906-19.846c6.16-4.497,12.473-3.581,18.642-0.069c5.795,3.299,9.731,8.449,13.112,14.039
		c1.484,2.456,2.764,5.037,4.207,7.694c-2.682,1.245-5.127,2.38-7.42,3.443c-2.397-3.823-4.519-7.729-7.166-11.239
		c-1.83-2.425-4.18-4.59-6.666-6.354c-3.973-2.819-7.346-2.638-10.465-0.067c-4.065,3.351-5.26,7.308-3.586,11.799
		c0.764,2.043,1.688,4.055,2.172,6.166c1.94,8.448-1.529,15.815-9.652,20.84c-0.41,0.254-0.828,0.496-1.082,0.649
		c0.883,3.232,1.988,6.291,2.533,9.445c2.6,15.057-5.246,29.908-19.067,36.361c-7.471,3.486-14.955,6.941-22.433,10.413
		c-0.626,0.29-1.251,0.581-1.976,0.917C78.91,99.795,73.677,88.52,68.386,77.119c3.87-1.796,7.673-3.561,11.614-5.391
		c3.828,4.763,8.398,4.711,13.507,2.049c3.808-1.984,7.792-3.629,11.677-5.467c4.09-1.937,5.867-5.009,5.39-9.513
		c-0.124-1.168,0.306-1.622,1.25-2.049c3.782-1.71,7.536-3.48,11.454-5.298c-0.229-0.663-0.422-1.216-0.639-1.839
		c-0.389,0.063-0.675,0.05-0.906,0.156c-3.521,1.614-7.055,3.208-10.545,4.892c-1.152,0.557-1.877,0.596-2.881-0.471
		c-2.615-2.776-5.928-3.602-9.453-2.083c-5.24,2.255-10.426,4.654-15.528,7.204C79.623,61.161,78.598,63.862,78.865,69.553z"/>
	<path fill="#96B49C" d="M49.346,41.667c10.926,23.544,21.767,46.906,32.745,70.563c-0.672,0.312-1.344,0.623-2.014,0.936
		c-7.412,3.439-14.818,6.889-22.235,10.316c-17.081,7.893-37.225,0.574-45.153-16.484c-2.691-5.792-5.876-11.391-6.908-17.857
		c-2.363-14.793,5.435-29.714,18.993-36.063c7.59-3.556,15.205-7.062,22.807-10.59C48.14,42.226,48.701,41.966,49.346,41.667z"/>
	<path fill="#96B49C" d="M97.391,69.523c-2.297,1.065-4.576,2.174-6.895,3.188c-3.811,1.668-7.45,0.378-9.035-3.144
		c-1.549-3.438-0.154-6.938,3.546-8.691c4.64-2.196,9.298-4.358,13.972-6.482c3.685-1.674,7.354-0.46,8.971,2.886
		c1.642,3.396,0.216,7.13-3.482,8.947C102.132,67.377,99.75,68.43,97.391,69.523z"/>
</g>
</svg>
