<?xml version="1.0" encoding="utf-8"?>
<!-- Generator: Adobe Illustrator 16.0.0, SVG Export Plug-In . SVG Version: 6.00 Build 0)  -->
<!DOCTYPE svg PUBLIC "-//W3C//DTD SVG 1.1//EN" "http://www.w3.org/Graphics/SVG/1.1/DTD/svg11.dtd">
<svg version="1.1" id="Layer_1" xmlns="http://www.w3.org/2000/svg" xmlns:xlink="http://www.w3.org/1999/xlink" x="0px" y="0px"
	 width="178px" height="133px" viewBox="0 0 178 133" enable-background="new 0 0 178 133" xml:space="preserve">
<path fill-rule="evenodd" clip-rule="evenodd" fill="#FFFFFF" d="M83,68c0,0-3.849-58.004,20.576-61.502
	c0,0,15.147,1.72,22.786,43.111C126.361,49.609,139,76,128,98c0,0-23-5-31-16L83,68z"/>
<g>
	<path fill-rule="evenodd" clip-rule="evenodd" fill="#96B49C" d="M3,72.117c0.341-1.314,0.668-2.633,1.028-3.942
		c0.481-1.747,1.496-2.793,3.354-3.356c6.786-2.055,13.59-4.091,20.246-6.521c7.063-2.578,13.673-6.179,20.122-10.044
		c7.074-4.241,13.893-8.873,20.187-14.195c5.554-4.697,10.976-9.566,16.211-14.614c3.922-3.782,7.479-7.944,11.144-11.987
		c1-1.103,1.645-2.552,2.721-3.554c2.382-2.216,5.573-2.243,8.563-0.406c3.735,2.295,6.458,5.576,8.896,9.11
		c4.731,6.862,8.158,14.381,11.036,22.176c3.113,8.435,5.43,17.083,7.004,25.926c1.579,8.866,2.386,17.794,1.463,26.79
		c-0.362,3.529-1.113,6.995-2.722,10.238c-2.313,4.66-6.348,5.849-10.879,3.281c-1.563-0.886-3.36-1.383-5.085-1.949
		c-12.404-4.069-25.084-6.94-38.025-8.636c-10.869-1.424-21.778-1.855-32.723-1.084c-0.636,0.045-1.271,0.103-1.906,0.166
		c-0.176,0.018-0.349,0.075-0.73,0.161c1.517,2.118,2.063,4.854,5.015,5.616c0.713,0.184,1.361,0.714,1.977,1.168
		c2.225,1.643,2.307,2.742,0.282,4.876c4.772,7.606,9.569,15.252,14.478,23.077c-0.831,0.26-1.54,0.507-2.263,0.703
		c-4.349,1.178-8.704,2.334-13.051,3.521c-0.95,0.259-1.609,0.181-2.336-0.691c-8.857-10.622-17.771-21.196-26.67-31.783
		c-1.883-2.24-1.93-2.382-4.706-1.469c-3.197,1.052-4.888-0.956-6.537-2.95C5.942,87.933,3.786,83.614,3,78.678
		C3,76.491,3,74.304,3,72.117z M130.692,78.331c-0.019-8.801-1.674-18.836-4.331-28.722c-3.576-13.306-8.375-26.082-16.815-37.172
		c-1.436-1.886-3.286-3.53-5.182-4.972c-1.777-1.353-3.183-0.898-4.311,0.993c-0.461,0.773-0.928,1.622-1.075,2.489
		c-0.608,3.577-1.418,7.163-1.563,10.769c-0.407,10.163,1.021,20.158,3.42,30.023c2.952,12.131,7.109,23.793,13.56,34.543
		c2.084,3.473,4.369,6.833,7.438,9.544c3.622,3.199,5.791,2.524,7.237-2.114C130.487,89.168,130.675,84.497,130.692,78.331z"/>
	<path fill-rule="evenodd" clip-rule="evenodd" fill="#96B49C" d="M174.145,53.253c-0.378,2.281-0.704,4.574-1.146,6.843
		c-1.025,5.264-2.976,10.179-5.718,14.995c-1.327-0.758-2.608-1.418-3.789-2.225c-0.227-0.154-0.235-0.974-0.049-1.332
		c2.005-3.854,3.563-7.87,4.488-12.119c1.892-8.685,1.245-17.225-1.843-25.518c-2.896-7.781-7.535-14.39-14.151-19.51
		c-1.825-1.412-3.711-2.745-5.667-4.186c0.814-1.403,1.626-2.8,2.476-4.264c3.799,2.146,7.124,4.716,10.169,7.669
		c5.315,5.153,9.223,11.248,11.866,18.123c1.569,4.081,2.587,8.337,3.023,12.712c0.048,0.483,0.224,0.953,0.34,1.429
		C174.145,48.332,174.145,50.792,174.145,53.253z"/>
	<path fill-rule="evenodd" clip-rule="evenodd" fill="#96B49C" d="M154.708,67.82c-1.461-0.838-2.835-1.625-4.265-2.445
		c0.59-1.313,1.208-2.572,1.73-3.87c3.637-9.045,3.065-17.886-1.418-26.488c-2.516-4.828-6.159-8.644-10.787-11.51
		c-0.682-0.422-1.017-0.801-0.484-1.612c0.697-1.06,1.283-2.192,1.915-3.29C156.33,25.729,165.994,48.896,154.708,67.82z"/>
	<path fill-rule="evenodd" clip-rule="evenodd" fill="#96B49C" d="M142.284,60.647c-1.366-0.78-2.665-1.438-3.844-2.266
		c-0.247-0.173-0.226-1.063-0.028-1.478c1.463-3.051,1.843-6.218,1.373-9.553c-0.651-4.624-2.914-8.232-6.622-10.994
		c-0.434-0.323-0.86-0.655-1.376-1.048c0.729-1.298,1.395-2.585,2.183-3.793c0.136-0.209,0.911-0.261,1.188-0.079
		c5.415,3.554,8.704,8.521,9.755,14.934C145.732,51.357,144.813,56.031,142.284,60.647z"/>
	<path fill-rule="evenodd" clip-rule="evenodd" fill="#96B49C" d="M121.206,54.131c-0.086,2.462-0.473,4.679-2.044,6.503
		c-2.091,2.426-5.099,2.377-6.927-0.232c-0.899-1.283-1.751-2.722-2.139-4.216c-0.781-3.011-1.392-6.089-1.752-9.178
		c-0.202-1.732,0.432-3.469,2.239-4.325c1.913-0.905,3.772-0.524,5.395,0.678C119.624,46.064,120.943,49.928,121.206,54.131z"/>
</g>
</svg>
