<?xml version="1.0" encoding="utf-8"?>
<!-- Generator: Adobe Illustrator 16.0.0, SVG Export Plug-In . SVG Version: 6.00 Build 0)  -->
<!DOCTYPE svg PUBLIC "-//W3C//DTD SVG 1.1//EN" "http://www.w3.org/Graphics/SVG/1.1/DTD/svg11.dtd" [
	<!ENTITY ns_flows "http://ns.adobe.com/Flows/1.0/">
	<!ENTITY ns_extend "http://ns.adobe.com/Extensibility/1.0/">
	<!ENTITY ns_ai "http://ns.adobe.com/AdobeIllustrator/10.0/">
	<!ENTITY ns_graphs "http://ns.adobe.com/Graphs/1.0/">
]>
<svg version="1.1" id="Layer_1" xmlns:x="&ns_extend;" xmlns:i="&ns_ai;" xmlns:graph="&ns_graphs;"
	 xmlns="http://www.w3.org/2000/svg" xmlns:xlink="http://www.w3.org/1999/xlink" xmlns:a="http://ns.adobe.com/AdobeSVGViewerExtensions/3.0/"
	 x="0px" y="0px" width="511.936px" height="511.936px" viewBox="0 0 511.936 511.936" enable-background="new 0 0 511.936 511.936"
	 xml:space="preserve">
<g>
	<path fill="#96B49C" d="M201.07,50.38c-8.1,0.84-16.25,1.33-24.29,2.55C94.35,65.48,37.56,146.3,53.33,228.45
		C72.61,328.84,181.92,381.11,272.27,333.06c2.851-1.52,5.261-1.8,8.391-0.949c16.03,4.37,30.53,1.33,42.29-10.67
		c11.6-11.841,14.17-26.19,10.189-42.091c-0.64-2.56-0.38-5.96,0.811-8.29c13.96-27.29,19.399-56.089,16.18-86.569
		C342.12,108.66,277.72,50.92,201.07,50.38z"/>
	<path fill="#96B49C" d="M341.02,314.67c-9.21,15.9-11.43,18.12-25.52,25.29c7.77,7.51,15.4,14.67,22.78,22.07
		c33.04,33.1,66,66.29,99.029,99.399c3.69,3.69,6.561,3.601,10.351-0.069c4.3-4.17,8.49-8.46,12.72-12.7
		c6.39-6.391,6.41-8.01,0.18-14.26c-35.75-35.82-71.479-71.641-107.229-107.46C349.34,322.94,345.33,318.97,341.02,314.67z"/>
	<path fill="#96B49C" d="M201.07,50.38c76.65,0.54,141.05,58.28,149.06,134.11c3.22,30.48-2.22,59.28-16.18,86.569
		c-1.19,2.33-1.45,5.73-0.811,8.29c3.98,15.9,1.41,30.25-10.189,42.091c-11.76,12-26.26,15.04-42.29,10.67
		c-3.13-0.851-5.54-0.57-8.391,0.949C181.92,381.11,72.61,328.84,53.33,228.45C37.56,146.3,94.35,65.48,176.78,52.93
		C184.82,51.71,192.97,51.22,201.07,50.38z"/>
	<path fill="#96B49C" d="M201.03,329.79c70.15,0,127.34-56.21,128.75-126.12c1.45-72.08-55.971-130.24-126.36-131.5
		c-72.05-1.3-130.57,56.19-131.14,126.61C71.7,272,128.98,329.79,201.03,329.79z"/>
	<path fill="#96B49C" d="M341.02,314.67c4.311,4.3,8.32,8.271,12.311,12.271c35.75,35.819,71.479,71.64,107.229,107.46
		c6.23,6.25,6.21,7.869-0.18,14.26c-4.229,4.24-8.42,8.53-12.72,12.7c-3.79,3.67-6.66,3.76-10.351,0.069
		c-33.029-33.109-65.989-66.3-99.029-99.399c-7.38-7.4-15.011-14.561-22.78-22.07C329.59,332.79,331.81,330.57,341.02,314.67z"/>
	<path fill="#FFFFFF" d="M201.03,329.79c-72.05,0-129.33-57.79-128.75-131.01c0.57-70.42,59.09-127.91,131.14-126.61
		c70.39,1.26,127.811,59.42,126.36,131.5C328.37,273.58,271.18,329.79,201.03,329.79z"/>
	<path fill="#96B49C" d="M278.12,136.41c-25.6,32.09-51.04,63.97-76.47,95.86c-2.31,2.9-3.63,1.83-4.99-0.9
		c-4.69-9.38-9.59-18.64-14.16-28.06c-1.03-2.11-1.47-4.71-1.46-7.08c0.02-6.78-3.68-11.21-9.86-11.25
		c-6.53-0.05-10.25,4.21-10.26,11.35c0,1.84-0.4,4.05-1.47,5.45c-12.94,16.93-26.01,33.75-39.14,50.53c-0.92,1.17-2.42,2.2-3.84,2.6
		c-6.42,1.79-9.7,6.59-8.31,12.6c1.18,5.13,6.43,8.36,11.94,7.36c5.39-0.98,8.31-5.76,7.88-12.09c-0.12-1.87,0.48-4.2,1.6-5.67
		c12.42-16.291,24.99-32.46,37.54-48.63c1.07-1.37,2.33-2.58,3.91-4.31c1.1,1.72,1.88,2.73,2.45,3.85
		c4.33,8.43,8.79,16.8,12.8,25.39c1.05,2.26,1.22,5.3,0.8,7.82c-1.03,6.25,2.38,11.9,8.23,12.69c6.3,0.85,10.93-2.99,11.74-9.33
		c0.26-1.99,1.11-4.15,2.35-5.71c16.94-21.42,33.99-42.74,51.02-64.08c8.5-10.65,17-21.28,25.68-32.14
		c3.94,3.1,7.54,5.94,12.021,9.48c-1.19-10.13-2.23-19.08-3.311-28.33c-9.42,1.09-18.21,2.12-28,3.25
		C271.11,130.61,274.53,133.44,278.12,136.41z"/>
	<path fill="#96B49C" d="M278.12,136.41c-3.59-2.97-7.01-5.8-11.311-9.35c9.79-1.13,18.58-2.16,28-3.25
		c1.08,9.25,2.12,18.2,3.311,28.33c-4.48-3.54-8.08-6.38-12.021-9.48c-8.68,10.86-17.18,21.49-25.68,32.14
		c-17.03,21.34-34.08,42.66-51.02,64.08c-1.24,1.56-2.09,3.72-2.35,5.71c-0.81,6.34-5.44,10.18-11.74,9.33
		c-5.85-0.79-9.26-6.44-8.23-12.69c0.42-2.52,0.25-5.56-0.8-7.82c-4.01-8.59-8.47-16.96-12.8-25.39c-0.57-1.12-1.35-2.13-2.45-3.85
		c-1.58,1.73-2.84,2.94-3.91,4.31c-12.55,16.17-25.12,32.34-37.54,48.63c-1.12,1.47-1.72,3.8-1.6,5.67
		c0.43,6.33-2.49,11.109-7.88,12.09c-5.51,1-10.76-2.23-11.94-7.36c-1.39-6.01,1.89-10.81,8.31-12.6c1.42-0.4,2.92-1.43,3.84-2.6
		c13.13-16.78,26.2-33.6,39.14-50.53c1.07-1.4,1.47-3.61,1.47-5.45c0.01-7.14,3.73-11.4,10.26-11.35c6.18,0.04,9.88,4.47,9.86,11.25
		c-0.01,2.37,0.43,4.97,1.46,7.08c4.57,9.42,9.47,18.68,14.16,28.06c1.36,2.73,2.68,3.8,4.99,0.9
		C227.08,200.38,252.52,168.5,278.12,136.41z"/>
</g>
</svg>
