<?xml version="1.0" encoding="utf-8"?>
<!-- Generator: Adobe Illustrator 16.0.0, SVG Export Plug-In . SVG Version: 6.00 Build 0)  -->
<!DOCTYPE svg PUBLIC "-//W3C//DTD SVG 1.1//EN" "http://www.w3.org/Graphics/SVG/1.1/DTD/svg11.dtd">
<svg version="1.1" id="Layer_1" xmlns="http://www.w3.org/2000/svg" xmlns:xlink="http://www.w3.org/1999/xlink" x="0px" y="0px"
	 width="21.25px" height="17.5px" viewBox="0 0 21.25 17.5" enable-background="new 0 0 21.25 17.5" xml:space="preserve">
<g>
	<path fill="#FFFFFF" d="M6.396,13.674c-1.953-0.226-3.295-1.168-3.999-3.01c0.629,0.007,1.217,0.071,1.8-0.099
		c-1.208-0.36-2.15-1.044-2.767-2.152C1.066,7.759,0.866,7.067,0.897,6.267c0.581,0.309,1.18,0.474,1.826,0.506
		C1.564,5.859,0.944,4.684,0.932,3.209C0.925,2.445,1.17,1.518,1.49,1.076C1.884,1.46,2.271,1.845,2.669,2.224
		c1.875,1.792,4.116,2.833,6.672,3.21c0.318,0.048,0.642,0.071,0.961,0.104c0.019,0.001,0.04-0.006,0.086-0.013
		c-0.007-0.072-0.012-0.143-0.021-0.214c-0.13-1.184,0.032-2.305,0.778-3.278c0.988-1.289,2.287-1.896,3.921-1.763
		c0.941,0.078,1.761,0.445,2.455,1.079c0.214,0.196,0.425,0.262,0.688,0.165c0.616-0.23,1.23-0.465,1.845-0.7
		c0.147-0.059,0.296-0.132,0.497-0.22c-0.343,0.966-0.939,1.672-1.686,2.283c0.763-0.043,1.463-0.317,2.178-0.545
		c0.009,0.014,0.021,0.028,0.032,0.043C20.985,2.5,20.897,2.63,20.805,2.75c-0.48,0.595-1.003,1.148-1.613,1.61
		c-0.121,0.093-0.169,0.193-0.18,0.341c-0.063,0.827-0.066,1.665-0.224,2.476c-0.712,3.703-2.613,6.628-5.879,8.583
		c-1.749,1.048-3.665,1.577-5.716,1.579c-0.938,0-1.877,0.017-2.808-0.16c-1.471-0.28-2.835-0.833-4.121-1.587
		c-0.035-0.022-0.066-0.047-0.101-0.101c1.097-0.016,2.194-0.015,3.26-0.33C4.486,14.848,5.458,14.367,6.396,13.674z"/>
</g>
</svg>
