<?xml version="1.0" encoding="utf-8"?>
<!-- Generator: Adobe Illustrator 16.0.0, SVG Export Plug-In . SVG Version: 6.00 Build 0)  -->
<!DOCTYPE svg PUBLIC "-//W3C//DTD SVG 1.1//EN" "http://www.w3.org/Graphics/SVG/1.1/DTD/svg11.dtd" [
	<!ENTITY ns_flows "http://ns.adobe.com/Flows/1.0/">
	<!ENTITY ns_extend "http://ns.adobe.com/Extensibility/1.0/">
	<!ENTITY ns_ai "http://ns.adobe.com/AdobeIllustrator/10.0/">
	<!ENTITY ns_graphs "http://ns.adobe.com/Graphs/1.0/">
]>
<svg version="1.1" id="Layer_1" xmlns:x="&ns_extend;" xmlns:i="&ns_ai;" xmlns:graph="&ns_graphs;"
	 xmlns="http://www.w3.org/2000/svg" xmlns:xlink="http://www.w3.org/1999/xlink" xmlns:a="http://ns.adobe.com/AdobeSVGViewerExtensions/3.0/"
	 x="0px" y="0px" width="168px" height="165px" viewBox="0 0 168 165" enable-background="new 0 0 168 165" xml:space="preserve">
<g>
	<path fill="#96B49C" d="M5.727,132.512c0.576,0.376,0.739,0.489,0.908,0.596c18.496,11.449,38.601,15.539,60.122,13.115
		c9.839-1.115,19.254-3.739,28.19-7.998c10.948-5.224,20.368-12.471,28.304-21.628c9.339-10.785,15.827-23.116,19.699-36.815
		c2.522-8.925,3.632-18.057,3.375-27.346c-0.013-0.576,0.408-1.309,0.852-1.735c3.576-3.464,7.284-6.796,10.791-10.329
		c1.535-1.541,2.706-3.451,4.041-5.199c-5.682,1.955-11.249,3.702-17.188,4.203c6.114-4.347,10.579-9.839,13.04-17.236
		c-0.556,0.237-0.839,0.325-1.09,0.463c-5.555,3.188-11.486,5.411-17.72,6.808c-0.676,0.151-1.722,0.038-2.166-0.388
		c-8.398-8.073-18.332-10.76-29.668-8.631c-13.587,2.562-24.653,15.327-25.142,29.106c-0.113,3.125,0.175,6.269,0.282,9.601
		C55.814,57.215,33.88,46.01,16.574,25.629C9.973,35.75,9.328,56.112,25.681,68.301c-2.342-0.257-4.691-0.539-6.946-1.171
		c-2.273-0.639-4.453-1.629-6.67-2.461C11.376,76.556,19.7,92.083,37.387,96.304c-4.817,1.315-9.389,1.285-14.343,0.551
		c5.443,13.812,15.251,21.158,29.977,22.474C38.884,129.875,23.371,134.185,5.727,132.512z"/>
	<path fill="#96B49C" d="M5.727,132.512c17.644,1.673,33.158-2.637,47.294-13.184c-14.725-1.315-24.534-8.662-29.977-22.474
		c4.955,0.734,9.526,0.765,14.343-0.551C19.7,92.083,11.376,76.556,12.065,64.668c2.217,0.833,4.397,1.822,6.67,2.461
		c2.255,0.632,4.604,0.914,6.946,1.171C9.328,56.112,9.973,35.75,16.574,25.629C33.88,46.01,55.814,57.215,82.358,59.1
		c-0.107-3.332-0.396-6.477-0.282-9.601c0.488-13.78,11.555-26.544,25.142-29.106c11.336-2.129,21.27,0.558,29.668,8.631
		c0.444,0.426,1.49,0.539,2.166,0.388c6.233-1.396,12.165-3.62,17.72-6.808c0.251-0.138,0.534-0.226,1.09-0.463
		c-2.461,7.397-6.926,12.89-13.04,17.236c5.938-0.501,11.506-2.249,17.188-4.203c-1.335,1.748-2.506,3.658-4.041,5.199
		c-3.507,3.533-7.215,6.865-10.791,10.329c-0.443,0.426-0.864,1.159-0.852,1.735c0.257,9.289-0.853,18.42-3.375,27.346
		c-3.872,13.699-10.36,26.03-19.699,36.815c-7.936,9.157-17.355,16.404-28.304,21.628c-8.937,4.259-18.352,6.883-28.19,7.998
		c-21.521,2.424-41.626-1.666-60.122-13.115C6.465,133.001,6.303,132.888,5.727,132.512z"/>
</g>
<g>
</g>
<g>
</g>
<g>
</g>
<g>
</g>
<g>
</g>
</svg>
