<?xml version="1.0" encoding="utf-8"?>
<!-- Generator: Adobe Illustrator 16.0.0, SVG Export Plug-In . SVG Version: 6.00 Build 0)  -->
<!DOCTYPE svg PUBLIC "-//W3C//DTD SVG 1.1//EN" "http://www.w3.org/Graphics/SVG/1.1/DTD/svg11.dtd" [
	<!ENTITY ns_flows "http://ns.adobe.com/Flows/1.0/">
	<!ENTITY ns_extend "http://ns.adobe.com/Extensibility/1.0/">
	<!ENTITY ns_ai "http://ns.adobe.com/AdobeIllustrator/10.0/">
	<!ENTITY ns_graphs "http://ns.adobe.com/Graphs/1.0/">
]>
<svg version="1.1" id="Layer_1" xmlns:x="&ns_extend;" xmlns:i="&ns_ai;" xmlns:graph="&ns_graphs;"
	 xmlns="http://www.w3.org/2000/svg" xmlns:xlink="http://www.w3.org/1999/xlink" xmlns:a="http://ns.adobe.com/AdobeSVGViewerExtensions/3.0/"
	 x="0px" y="0px" width="168px" height="165px" viewBox="0 0 168 165" enable-background="new 0 0 168 165" xml:space="preserve">
<path fill="#96B49C" d="M83.656,154.652c-15.83,0-31.65,0.029-47.48-0.01c-17.64-0.051-28.64-11.111-28.63-28.781
	c0-29.65,0.021-59.299,0.07-88.95c0.03-17.15,10.85-28.17,28.03-28.23c32.32-0.11,64.64,0.18,96.951-0.11
	c17-0.15,28.18,13.67,27.85,27.99c-0.701,29.97-0.15,59.959-0.15,89.95c-0.01,17.02-11.041,28.061-28.17,28.131
	C115.967,154.701,99.807,154.652,83.656,154.652z"/>
<path fill="#FFFFFF" d="M84.506,115.961c-11.479,0-22.959,0.25-34.43-0.068c-10.939-0.311-16.2-5.021-16.669-15.801
	c-0.57-13.26-0.59-26.581,0-39.84c0.46-10.629,5.61-15.399,16.259-15.529c22.951-0.28,45.91-0.23,68.852,0.02
	c9.779,0.1,15.139,4.34,15.67,13.891c0.799,14.399,0.738,28.909-0.012,43.309c-0.479,9.15-6.18,13.73-15.25,13.92
	c-11.469,0.26-22.949,0.07-34.43,0.07C84.496,115.941,84.496,115.951,84.506,115.961z"/>
<path fill="#96B49C" d="M73.717,65.931c8.98,4.701,17.26,9.031,26.449,13.841c-9.219,5.021-17.549,9.57-26.449,14.419
	C73.717,84.582,73.717,75.722,73.717,65.931z"/>
<g>
</g>
<g>
</g>
<g>
</g>
<g>
</g>
<g>
</g>
</svg>
